PathFileType	4	(X/Y/Z)	P:\Projects\LMB_grand_challenge_database\project_only\opensim\experimental_data\SixthCompetition/DM_ngait_og4_new.trc
DataRate	CameraRate	NumFrames	NumMarkers	Units	OrigDataRate	OrigDataStartFrame	OrigNumFrames
120	120	7	68	mm	120	327	374
Frame#	Time	Sternum			Neck			R_Shoulder			L_Shoulder			Xiphoid			Thoracic			R_Asis			L_Asis			R_Psis			L_Psis			Lumbar			R_Elbow			R_ElbowMedial			R_ShoulderAnterior			R_ShoulderPosterior			R_Wrist			R_Radius			R_Ulna			L_Elbow			L_ElbowMedial			L_ShoulderAnterior			L_ShoulderPosterior			L_Wrist			L_Ulna			L_Radius			L_Thigh_Superior			L_Thigh_Inferior			L_Thigh_Lateral			L_Knee_Lateral			L_Knee_Medial			L_Patella			L_Shank_Superior			L_Shank_Inferior			L_Shank_Lateral			L_Ankle_Lateral			L_Ankle_Medial			R_Thigh_Superior			R_Thigh_Inferior			R_Thigh_Lateral			R_Knee_Lateral			R_Knee_Medial			R_Patella			R_Shank_Superior			R_Shank_Inferior			R_Shank_Lateral			R_Ankle_Lateral			RankleMedial			R_Heel			R_Toe			R_Midfoot_Medial			R_Midfoot_Lateral			R_Hindfoot			R_Midfoot_Superior			R_ToeMedial			R_ToeLateral			L_Heel			L_Toe			L_Midfoot_Medial			L_Midfoot_Lateral			L_Hindfoot			L_Midfoot_Superior			L_ToeMedial			L_ToeLateral			Oglobal			Sacral			Xglobal			Yglobal			Zglobal			
		X1	Y1	Z1	X2	Y2	Z2	X3	Y3	Z3	X4	Y4	Z4	X5	Y5	Z5	X6	Y6	Z6	X7	Y7	Z7	X8	Y8	Z8	X9	Y9	Z9	X10	Y10	Z10	X11	Y11	Z11	X12	Y12	Z12	X13	Y13	Z13	X14	Y14	Z14	X15	Y15	Z15	X16	Y16	Z16	X17	Y17	Z17	X18	Y18	Z18	X19	Y19	Z19	X20	Y20	Z20	X21	Y21	Z21	X22	Y22	Z22	X23	Y23	Z23	X24	Y24	Z24	X25	Y25	Z25	X26	Y26	Z26	X27	Y27	Z27	X28	Y28	Z28	X29	Y29	Z29	X30	Y30	Z30	X31	Y31	Z31	X32	Y32	Z32	X33	Y33	Z33	X34	Y34	Z34	X35	Y35	Z35	X36	Y36	Z36	X37	Y37	Z37	X38	Y38	Z38	X39	Y39	Z39	X40	Y40	Z40	X41	Y41	Z41	X42	Y42	Z42	X43	Y43	Z43	X44	Y44	Z44	X45	Y45	Z45	X46	Y46	Z46	X47	Y47	Z47	X48	Y48	Z48	X49	Y49	Z49	X50	Y50	Z50	X51	Y51	Z51	X52	Y52	Z52	X53	Y53	Z53	X54	Y54	Z54	X55	Y55	Z55	X56	Y56	Z56	X57	Y57	Z57	X58	Y58	Z58	X59	Y59	Z59	X60	Y60	Z60	X61	Y61	Z61	X62	Y62	Z62	X63	Y63	Z63	X64	Y64	Z64	X65	Y65	Z65	X66	Y66	Z66	X67	Y67	Z67	X68	Y68	Z68	

328	4.95	1490.76	1346.9	35.7283	1334.55	1428.13	77.0775	1469.22	1373.87	216.439	1355.99	1398.59	-110.124	1511.18	1181.27	41.3924	1240.16	1238.16	81.54430000000001	1432.94	953.296	207.826	1428.78	942.681	-70.12520000000001	1229.11	995.647	105.694	1227.32	990.4400000000001	26.177	1232.12	1042.36	62.3543	1529.61	1064.85	306.241	-0	0	0	-0	0	0	-0	0	0	1654.18	817.4299999999999	240.499	1632.33	836.079	201.03	1614.3	817.736	270.27	1219.13	1086.92	-188.094	-0	0	0	-0	0	0	-0	0	0	1203.21	818.147	-211.587	1162.45	842.79	-210.953	1221.72	829.873	-167.487	1403.45	785.668	-110.213	1509.72	593.457	-56.601	1523.22	697.34	-42.4395	-0	0	0	-0	0	0	1578.77	528.673	6.16514	1528.51	443.942	-68.4203	1587.47	179.28	-75.05800000000001	1598.31	311.913	-0.134049	-0	0	0	-0	0	0	1305.74	780.047	241.544	1242.72	571.063	197.62	1352.36	670.739	216.922	-0	0	0	-0	0	0	1283.51	455.826	129.255	1126.57	408.452	210.206	1022.87	226.145	197.848	1140.58	304.303	127.748	-0	0	0	-0	0	0	881.038	131.065	148.859	1157.76	41.5431	136.888	1078.49	30.2264	88.3456	1068.68	23.62	205.019	964.489	60.5926	196.302	1053.54	128.667	150.258	1120.3	34.2434	93.7954	1116.71	35.1663	186.233	1558.45	51.501	-22.7415	1843.53	119.95	-30.6976	1778.17	81.28740000000001	22.0282	1765.2	75.16800000000001	-91.55249999999999	1664.41	39.5423	-83.55370000000001	1697.38	145.328	-31.9496	1812.86	90.0055	11.5489	1811.11	92.2247	-82.6127	-0	0	0	1228.22	993.043	65.9357	-200	0	0	-0	0	200	-0	200	0	
329	4.958333	1501.37	1346.38	33.3706	1345.15	1427.18	74.4875	1479.35	1374.08	214.682	1366.27	1397.11	-112.38	1522.49	1180.7	39.3639	1251.3	1236.76	79.7606	1443.82	952.1609999999999	206.774	1441.08	942.2380000000001	-71.10469999999999	1240.44	994.476	103.742	1239.07	989.203	24.4373	1243.55	1041.18	60.577	1538.77	1064.54	304.119	-0	0	0	-0	0	0	-0	0	0	1662.51	816.55	239.705	1640.85	835.136	200.343	1622.42	816.819	269.393	1228.28	1085.82	-189.366	-0	0	0	-0	0	0	-0	0	0	1211.07	817.2190000000001	-212.994	1170.2	841.803	-211.878	1229.81	828.914	-168.648	1418.12	785.146	-109.158	1521.27	592.099	-52.8082	1537.95	693.967	-42.7202	-0	0	0	-0	0	0	1589.62	526.521	9.294359999999999	1540.88	443.344	-68.27930000000001	1596.06	177.766	-75.6814	1606.46	309.356	0.603122	-0	0	0	-0	0	0	1316.47	778.602	240.02	1253.92	569.475	196.645	1363.17	669.268	216.473	-0	0	0	-0	0	0	1295.31	453.11	129.731	1136.01	409.114	209.489	1028.87	229.009	197.947	1148.74	303.903	128.315	-0	0	0	-0	0	0	885.402	137.6	149.249	1158.3	40.3667	136.864	1079.42	30.5689	88.2724	1069.37	23.7484	204.913	966.5309999999999	64.3164	196.277	1057.74	129.491	150.641	1120.87	33.8263	93.8214	1117.27	34.6219	186.336	1560.6	52.7152	-23.6247	1848.21	109.225	-27.8219	1781.01	72.7413	23.1359	1768.78	67.5117	-90.5714	1668.57	36.598	-84.3319	1703.41	140.304	-31.3258	1816.15	81.09699999999999	14.3167	1816.2	83.1357	-80.15300000000001	-0	0	0	1239.76	991.8390000000001	64.0895	-200	0	0	-0	0	200	-0	200	0	
330	4.966667	1512.05	1345.95	31.0466	1355.57	1426.31	71.74979999999999	1489.43	1374.02	212.816	1376.77	1395.69	-114.888	1533.89	1180.35	37.4007	1262.29	1235.63	77.7882	1454.92	950.755	205.157	1452.84	942.09	-72.32940000000001	1251.71	993.478	101.932	1250.37	988.244	22.622	1254.89	1040.2	59.1112	1547.62	1064.25	302.174	-0	0	0	-0	0	0	-0	0	0	1670.42	815.556	239.283	1649.16	834.347	199.809	1630.18	815.974	268.759	1237.58	1084.58	-190.577	-0	0	0	-0	0	0	-0	0	0	1218.81	815.71	-213.545	1178.66	841.098	-213.016	1238.12	827.766	-169.912	1432.09	784.896	-107.626	1534.61	590.592	-51.7716	1550.98	689.154	-41.8346	-0	0	0	-0	0	0	1601.03	525.354	11.3612	1554.84	442.865	-67.66419999999999	1603.57	175.925	-76.459	1614.05	306.381	1.17153	-0	0	0	-0	0	0	1327.56	777.059	238.26	1265.65	567.841	195.331	1374.31	667.684	215.685	-0	0	0	-0	0	0	1308.17	450.439	130.379	1146.27	409.974	208.719	1035.6	232.1	198.044	1157.52	303.603	128.753	-0	0	0	-0	0	0	890.503	145.001	149.425	1158.58	39.0337	136.718	1080.42	30.2499	89.5808	1070.07	24.8801	206.271	968.664	69.4967	196.975	1062.4	130.482	151.024	1121.47	33.2148	93.88420000000001	1117.86	34.1447	186.397	1562.56	53.9227	-24.1873	1851.95	99.43680000000001	-27.4999	1783.28	65.7475	23.904	1771.61	59.7096	-89.8216	1668.33	32.0604	-83.68089999999999	1708.87	135.751	-31.8578	1819.2	72.6438	14.42	1818.81	74.0985	-80.199	-0	0	0	1251.04	990.861	62.2771	-200	0	0	-0	0	200	-0	200	0	
331	4.975	1522.78	1345.5	28.7076	1366.17	1425.72	69.1464	1499.55	1374.06	210.738	1387.46	1394.27	-117.269	1545.16	1180	35.4179	1273.3	1234.8	76.0754	1465.86	949.611	203.306	1464.52	942.323	-73.63549999999999	1262.83	992.689	99.8677	1261.56	987.54	20.7381	1266.06	1039.46	57.4812	1556.15	1064.14	300.385	-0	0	0	-0	0	0	-0	0	0	1678.02	814.683	239.115	1657.13	833.697	199.43	1637.44	815.122	268.133	1247.59	1083.3	-191.948	-0	0	0	-0	0	0	-0	0	0	1227.61	814.597	-214.808	1187.27	840.135	-214.004	1247.19	826.538	-171.379	1445.49	785.071	-106.235	1547.75	588.236	-51.2255	1563.31	684.48	-38.3462	-0	0	0	-0	0	0	1612.78	524.966	12.8274	1570.1	442.413	-67.161	1610.42	174.241	-77.4473	1621.02	303.436	1.78609	-0	0	0	-0	0	0	1338.81	775.54	236.282	1278.49	565.912	193.889	1386.15	666.144	214.674	-0	0	0	-0	0	0	1321.78	447.736	130.713	1157.38	410.678	207.831	1042.74	235.628	198.246	1167.16	303.382	129.023	-0	0	0	-0	0	0	896.307	153.099	149.889	1160.05	37.5076	136.556	1081.16	30.5345	89.68899999999999	1070.85	25.6276	206.402	972.0650000000001	74.286	197.338	1067.7	131.412	151.138	1122.16	32.5924	93.81010000000001	1118.83	33.5306	186.225	1564.26	54.9065	-24.6617	1856.18	91.0827	-29.1578	1784.96	60.0884	24.6277	1773.76	52.0083	-89.0179	1667.72	27.4084	-82.7118	1713.73	131.6	-33.128	1821.12	64.8672	13.8421	1821.67	66.01600000000001	-81.06010000000001	-0	0	0	1262.2	990.114	60.3029	-200	0	0	-0	0	200	-0	200	0	
332	4.983333	1533.6	1345.16	26.5672	1376.81	1425.28	66.7856	1509.91	1374.39	208.91	1398.25	1392.86	-119.56	1556.35	1179.66	33.7569	1284.11	1234.2	74.8182	1477.14	948.175	201.164	1475.74	942.687	-75.3511	1274.09	991.946	98.0646	1272.58	987.0170000000001	19.0062	1277.25	1038.83	56.2015	1564.13	1064.11	299.021	-0	0	0	-0	0	0	-0	0	0	1685.06	813.915	239.229	1664.79	833.022	199.504	1644.16	814.498	267.952	1257.93	1081.93	-193.277	-0	0	0	-0	0	0	-0	0	0	1236.54	813.417	-216.105	1196.62	839.112	-215.092	1256.56	825.578	-172.921	1458.72	786.226	-105.564	1561.88	587.5700000000001	-52.0452	1574.89	682.494	-33.0116	-0	0	0	-0	0	0	1624.21	524.827	13.0084	1583.96	442.431	-66.63720000000001	1616.06	173.166	-78.2246	1627.68	301.723	1.69647	-0	0	0	-0	0	0	1350.57	773.947	234.342	1291.91	564.22	192.333	1398.71	664.836	213.624	-0	0	0	-0	0	0	1336.03	445.162	130.91	1169.37	411.5	206.831	1051.08	238.799	197.944	1177.45	303.47	129.167	-0	0	0	-0	0	0	903.585	161.567	149.914	1160.37	35.7051	136.169	1082.94	31.3197	89.2294	1072.34	26.3235	205.913	976.075	78.98690000000001	197.205	1073.62	132.443	151.143	1122.81	31.7917	93.71810000000001	1119.79	33.0895	186.188	1566.13	55.6106	-25.1887	1859.44	82.86060000000001	-29.952	1787.06	54.033	23.367	1775.23	46.2774	-90.2384	1666.59	25.9074	-82.2209	1717.76	127.635	-34.1677	1822.78	57.9726	13.6253	1823.87	58.36	-81.7221	-0	0	0	1273.34	989.481	58.5354	-200	0	0	-0	0	200	-0	200	0	
333	4.991667	1544.09	1345.06	24.1841	1387.52	1425.31	64.5052	1520.45	1374.86	207.334	1409.26	1391.75	-121.673	1567.47	1179.68	32.1982	1295.06	1233.97	73.5881	1488.23	947.1180000000001	198.909	1486.74	943.611	-77.0222	1285.08	991.564	96.2679	1283.32	986.808	17.314	1288.16	1038.53	54.9766	1571.71	1064.08	298.026	-0	0	0	-0	0	0	-0	0	0	1691.6	813.277	239.654	1671.96	832.371	199.814	1650.88	814.1849999999999	268.34	1268.79	1080.68	-194.493	-0	0	0	-0	0	0	-0	0	0	1246.08	811.9930000000001	-217.085	1206.26	838.1180000000001	-216.27	1266.43	824.372	-174.473	1471.01	787.5359999999999	-105.052	1578.54	591.399	-52.2222	1585.45	684.484	-27.0355	-0	0	0	-0	0	0	1636.01	524.61	12.4409	1595.64	443.017	-67.0793	1621.5	173.058	-79.0048	1635.04	301.474	1.19382	-0	0	0	-0	0	0	1362.54	772.3049999999999	232.23	1305.8	561.845	191.413	1411.89	663.667	212.175	-0	0	0	-0	0	0	1350.86	442.298	130.741	1182.16	412.383	205.902	1060.44	242.268	197.186	1188.46	303.259	129.184	-0	0	0	-0	0	0	911.9589999999999	171.176	149.964	1161.94	34.4222	136.307	1084.5	32.051	89.2067	1073.89	27.8096	205.92	979.546	85.56780000000001	197.142	1080.1	133.685	150.935	1123.43	31.2334	93.7788	1120.96	32.6893	186.211	1566.84	56.3623	-25.1869	1862	75.5162	-29.8915	1787.76	48.5651	22.7728	1775.44	41.5836	-90.82989999999999	1667.24	24.8375	-82.4769	1721.35	124.7	-34.3505	1824.66	52.2352	14.1552	1825.44	51.937	-81.63849999999999	-0	0	0	1284.2	989.186	56.7909	-200	0	0	-0	0	200	-0	200	0	
334	5	1555.04	1344.88	22.7138	1398.06	1425.15	62.5913	1531.3	1375.45	205.735	1420.31	1390.78	-123.555	1578.35	1179.68	30.6686	1305.92	1234.1	72.31059999999999	1498.88	946.1900000000001	196.91	1497.35	944.813	-78.7929	1295.76	991.533	94.629	1293.78	986.981	15.6425	1298.74	1038.61	53.8369	1578.76	1064.08	297.197	-0	0	0	-0	0	0	-0	0	0	1697.75	812.6799999999999	240.177	1679.01	831.85	200.151	1656.38	813.297	267.896	1279.8	1079.65	-196.009	-0	0	0	-0	0	0	-0	0	0	1256.18	810.7809999999999	-219.368	1216.5	837.446	-217.902	1276.76	823.547	-175.832	1482.23	789.075	-105.722	1593.74	596.721	-51.9943	1595.1	688.877	-23.0217	-0	0	0	-0	0	0	1647.65	525.149	11.1705	1605.67	443.727	-68.274	1626.45	173.263	-79.5376	1642.3	301.402	0.450071	-0	0	0	-0	0	0	1374.77	770.718	229.91	1320.65	559.787	189.702	1425.24	662.421	210.499	-0	0	0	-0	0	0	1366.76	439.76	130.793	1195.91	413.092	204.892	1070.35	246.208	196.766	1200.09	303.486	128.951	-0	0	0	-0	0	0	921.239	181.376	149.901	1163.06	32.5799	136.037	1085.94	32.9308	89.4589	1075.65	30.0863	206.243	984.451	92.85469999999999	197.302	1087.12	135.107	150.455	1124.19	30.9289	93.74160000000001	1122.07	32.4442	186.205	1566.95	57.9623	-25.824	1863.83	69.52500000000001	-28.9394	1787.3	44.0484	23.3862	1775.44	37.5246	-90.2931	1667.75	24.2457	-82.56140000000001	1724.26	122.416	-34.0733	1826.61	47.5286	14.5695	1827.21	47.4077	-80.93980000000001	-0	0	0	1294.77	989.2569999999999	55.1357	-200	0	0	-0	0	200	-0	200	0	
